<svg width="24" height="26" viewBox="0 0 24 26" fill="none" xmlns="http://www.w3.org/2000/svg">
<path d="M15.8976 7.45097L13.1477 2.66404C12.6371 1.77523 11.3563 1.77098 10.8398 2.65638L7.93802 7.63087C7.55367 8.28976 6.90557 8.7525 6.15759 8.9021L2.19263 9.69509C1.16572 9.90047 0.765577 11.1553 1.484 11.9172L4.35177 14.9588C4.965 15.6092 5.21157 16.5236 5.00844 17.3941L3.7104 22.9572C3.44357 24.1007 4.67836 25.0058 5.68859 24.4072L10.6409 21.4725C11.4791 20.9758 12.5216 20.9758 13.3598 21.4725L18.3121 24.4072C19.3223 25.0058 20.5571 24.1007 20.2903 22.9572L18.9809 17.3454C18.7841 16.5018 19.0092 15.6152 19.5847 14.9678L22.456 11.7376C23.1401 10.9679 22.7307 9.74629 21.721 9.54434L17.6869 8.73752C16.9329 8.58672 16.2806 8.11775 15.8976 7.45097Z" stroke="white" stroke-width="2" stroke-miterlimit="10"/>
</svg>
